<?xml version="1.0" encoding="UTF-8"?>
<!DOCTYPE svg PUBLIC "-//W3C//DTD SVG 1.1//EN" "http://www.w3.org/Graphics/SVG/1.1/DTD/svg11.dtd">
<svg xmlns="http://www.w3.org/2000/svg" version="1.1" width="512px" height="512px" style="shape-rendering:geometricPrecision; text-rendering:geometricPrecision; image-rendering:optimizeQuality; fill-rule:evenodd; clip-rule:evenodd" >
<g><path style="opacity:0.993" fill="#000000" d="M 238.5,4.5 C 312.872,1.24826 366.705,32.5816 400,98.5C 424.198,163.843 412.864,222.176 366,273.5C 351.55,294.569 340.717,317.402 333.5,342C 281.5,342.667 229.5,342.667 177.5,342C 167.176,307.506 150.01,277.006 126,250.5C 96.5734,204.663 90.9067,155.996 109,104.5C 133.933,47.461 177.099,14.1276 238.5,4.5 Z"/></g>
<g><path style="opacity:0.937" fill="#000000" d="M 181.5,363.5 C 230.833,363.5 280.167,363.5 329.5,363.5C 328.466,372.136 327.8,380.803 327.5,389.5C 279.5,389.5 231.5,389.5 183.5,389.5C 183.2,380.803 182.534,372.136 181.5,363.5 Z"/></g>
<g><path style="opacity:0.977" fill="#000000" d="M 183.5,409.5 C 231.5,409.5 279.5,409.5 327.5,409.5C 327.667,423.504 327.5,437.504 327,451.5C 324.316,457.094 319.816,459.427 313.5,458.5C 304.406,492.217 282.406,508.051 247.5,506C 221.288,500.733 204.622,485.233 197.5,459.5C 193.34,459.029 189.507,457.696 186,455.5C 185.333,454.167 184.667,452.833 184,451.5C 183.5,437.504 183.333,423.504 183.5,409.5 Z"/></g>
</svg>
