<?xml version="1.0" encoding="UTF-8"?>
<!DOCTYPE svg PUBLIC "-//W3C//DTD SVG 1.1//EN" "http://www.w3.org/Graphics/SVG/1.1/DTD/svg11.dtd">
<svg xmlns="http://www.w3.org/2000/svg" version="1.1" width="512px" height="512px" style="shape-rendering:geometricPrecision; text-rendering:geometricPrecision; image-rendering:optimizeQuality; fill-rule:evenodd; clip-rule:evenodd" xmlns:xlink="http://www.w3.org/1999/xlink">
<g><path style="opacity:0.989" fill="#000000" d="M 234.5,-0.5 C 249.167,-0.5 263.833,-0.5 278.5,-0.5C 366.549,9.91802 433.382,52.918 479,128.5C 496.968,161.07 507.802,195.737 511.5,232.5C 511.5,247.167 511.5,261.833 511.5,276.5C 501.4,362.043 460.4,428.21 388.5,475C 354.45,495.295 317.783,507.461 278.5,511.5C 263.833,511.5 249.167,511.5 234.5,511.5C 136.729,498.881 65.8958,448.548 22,360.5C 10.0983,333.552 2.59834,305.552 -0.5,276.5C -0.5,261.833 -0.5,247.167 -0.5,232.5C 11.794,136.384 61.1273,66.5504 147.5,23C 175.31,10.2998 204.31,2.46647 234.5,-0.5 Z M 142.5,120.5 C 152.133,118.967 160.8,121.134 168.5,127C 197.681,155.682 227.015,184.182 256.5,212.5C 286.014,183.152 315.681,153.986 345.5,125C 364.734,115.856 379.234,120.689 389,139.5C 392.179,150.03 390.512,159.697 384,168.5C 355.32,197.014 326.82,225.68 298.5,254.5C 327.848,284.014 357.014,313.681 386,343.5C 395.144,362.734 390.311,377.234 371.5,387C 360.97,390.179 351.303,388.512 342.5,382C 313.986,353.32 285.32,324.82 256.5,296.5C 226.318,325.849 195.985,355.015 165.5,384C 146.266,393.144 131.766,388.311 122,369.5C 118.821,358.97 120.488,349.303 127,340.5C 155.68,311.986 184.18,283.32 212.5,254.5C 183.152,224.986 153.986,195.319 125,165.5C 115.816,144.549 121.649,129.549 142.5,120.5 Z"/></g>
</svg>
