<?xml version="1.0" encoding="UTF-8"?>
<!DOCTYPE svg PUBLIC "-//W3C//DTD SVG 1.1//EN" "http://www.w3.org/Graphics/SVG/1.1/DTD/svg11.dtd">
<svg xmlns="http://www.w3.org/2000/svg" version="1.1" width="512px" height="512px" style="shape-rendering:geometricPrecision; text-rendering:geometricPrecision; image-rendering:optimizeQuality; fill-rule:evenodd; clip-rule:evenodd" xmlns:xlink="http://www.w3.org/1999/xlink">
<g><path style="opacity:0.992" fill="#000000" d="M 232.5,-0.5 C 247.833,-0.5 263.167,-0.5 278.5,-0.5C 378.271,12.4486 449.438,64.4486 492,155.5C 502.136,180.379 508.636,206.046 511.5,232.5C 511.5,247.833 511.5,263.167 511.5,278.5C 498.551,378.271 446.551,449.438 355.5,492C 330.622,502.136 304.955,508.636 278.5,511.5C 263.167,511.5 247.833,511.5 232.5,511.5C 132.727,498.549 61.5605,446.549 19,355.5C 8.86392,330.621 2.36392,304.954 -0.5,278.5C -0.5,263.167 -0.5,247.833 -0.5,232.5C 12.4486,132.729 64.4486,61.5622 155.5,19C 180.379,8.86392 206.046,2.36392 232.5,-0.5 Z M 365.5,165.5 C 383.96,165.128 392.127,174.128 390,192.5C 389,194.5 388,196.5 387,198.5C 339.167,246.333 291.333,294.167 243.5,342C 234.923,346.907 226.59,346.574 218.5,341C 194,316.5 169.5,292 145,267.5C 137.808,251.731 142.308,240.898 158.5,235C 163.834,234.249 168.834,235.249 173.5,238C 192.68,257.347 212.014,276.514 231.5,295.5C 273.986,253.514 316.32,211.347 358.5,169C 360.925,167.787 363.259,166.621 365.5,165.5 Z"/></g>
</svg>
